<svg xmlns="http://www.w3.org/2000/svg" xmlns:xlink="http://www.w3.org/1999/xlink" viewBox="0 0 32 32"><defs><style>.cls-1{fill:url(#linear-gradient);}.cls-2{fill:#fff;}</style><linearGradient id="linear-gradient" x1="26.71" y1="27.66" x2="14.4" y2="14.26" gradientUnits="userSpaceOnUse"><stop offset="0" stop-color="#15baff"/><stop offset="1" stop-color="#00d7ff"/></linearGradient></defs><title>favicon-32</title><g id="background"><rect class="cls-1" x="0.72" y="0.72" width="30.56" height="30.56" rx="15.02"/></g><g id="icon"><path class="cls-2" d="M22.43,25.52a.56.56,0,0,0,.33.45.57.57,0,0,0,.55-.06C28.68,22,25.5,8.61,8.18,6.71a.61.61,0,0,0-.48.15.58.58,0,0,0-.22.45C7.12,16.4,10.35,27,19.57,26.85a.91.91,0,0,0,.91-.87c.16-3.32-2.1-6.88-5.58-11.4.07.07.83-.63.9-.57C18.81,16.83,22,20.94,22.43,25.52Z"/></g></svg>