<svg xmlns="http://www.w3.org/2000/svg" viewBox="0 0 30 210"><defs><style>.cls-1{fill:#6b6879;}.cls-2{fill:#2ac9ff;}.cls-3{fill:#fff;}.cls-4{fill:#dff666;}.cls-5{fill:#ff7978;}</style></defs><title>sprite_symbols</title><g id="icons"><polygon class="cls-1" points="21.48 40.99 19.01 38.52 15 42.52 10.99 38.52 8.52 40.99 12.53 45 8.52 49.01 10.99 51.48 15 47.48 19.01 51.48 21.48 49.01 17.47 45 21.48 40.99"/><polygon class="cls-2" points="11.69 24.25 4.06 16.62 6.89 13.79 11.69 18.59 23.11 7.17 25.94 9.99 11.69 24.25"/><polygon class="cls-3" points="11.69 84.25 4.06 76.62 6.89 73.79 11.69 78.59 23.11 67.17 25.94 70 11.69 84.25"/><polygon class="cls-4" points="11.69 114.25 4.06 106.62 6.89 103.79 11.69 108.59 23.11 97.17 25.94 100 11.69 114.25"/><path class="cls-5" d="M15,126.09A7,7,0,0,0,5.06,136L15,146,24.94,136A7,7,0,0,0,15,126.09Z"/><path class="cls-1" d="M24.13,157H5.87a2.21,2.21,0,0,0-2.21,2.2v11.64A2.21,2.21,0,0,0,5.87,173H24.13a2.21,2.21,0,0,0,2.21-2.2V159.18A2.22,2.22,0,0,0,24.13,157ZM5.87,158.45H24.13a.73.73,0,0,1,.73.73v.74l-9.92,6.63-9.8-6.74v-.63A.73.73,0,0,1,5.87,158.45Zm18.26,13.1H5.87a.73.73,0,0,1-.73-.73v-9.23l9.79,6.73,9.93-6.63v9.12A.74.74,0,0,1,24.13,171.55Z"/><path class="cls-2" d="M15.83,183.25a11.79,11.79,0,1,0,10.79,10.8A11.78,11.78,0,0,0,15.83,183.25ZM17.19,185a13.79,13.79,0,0,1,1.35.4,2.3,2.3,0,0,0,.8.35,10.24,10.24,0,0,1,3.32,2.51.38.38,0,0,1,.1.25,1.48,1.48,0,0,1-.05.66,1.18,1.18,0,0,0-.1.4.59.59,0,0,0,.45.5,2.24,2.24,0,0,0,.6.05.38.38,0,0,1,.35.25,3.56,3.56,0,0,0,.35.75,10,10,0,0,1,.76,3.47A.7.7,0,0,1,25,195a4.72,4.72,0,0,0-.56.75,10.48,10.48,0,0,1-1.15,2.11,2.45,2.45,0,0,0-.65,1,4.38,4.38,0,0,0-.1.8c0,.1-.2.1-.3,0a5.54,5.54,0,0,1-.86-2c-.1-.5-.2-1-.35-1.51a2,2,0,0,0-.9-1.2,4.38,4.38,0,0,0-1.61-.25A1.86,1.86,0,0,1,17,194.2a1.22,1.22,0,0,1-.25-.71,3.18,3.18,0,0,1,1.61-3.31c.15-.1.3-.15.45-.25a1,1,0,0,0,.35-1.06.14.14,0,0,0-.2-.1,4.34,4.34,0,0,0-.85.36c-.15.05-.3,0-.25-.15a5.41,5.41,0,0,1,.2-1.51,2.25,2.25,0,0,0,.05-1.61.41.41,0,0,0-.3-.2H16.38a0,0,0,0,1-.05,0,3.44,3.44,0,0,0,.65-.55A.37.37,0,0,1,17.19,185Zm-5.08.15a.19.19,0,0,1,.26.1c.15.25.25.5.4.8a2.45,2.45,0,0,1,.1,2c-.35.7-1.16,1-1.81,1.36a9.1,9.1,0,0,0-3.36,3s-.1.15-.15.15a.19.19,0,0,1-.26-.1,1.35,1.35,0,0,1-.4-.35s-.2.05-.2.15A1.63,1.63,0,0,0,7.45,194a1,1,0,0,1,.3.2c.2.25,0,.6,0,.9s.55.65,1,.6a5.06,5.06,0,0,0,1.21-.4,3.05,3.05,0,0,1,2.71.35c.4.25.75.66,1.15.91a1.84,1.84,0,0,0,1.21.4.38.38,0,0,1,.25.1,1.42,1.42,0,0,1-.25,1.25A10.09,10.09,0,0,1,14,199.37c-.85.95-1.05,2.41-1.76,3.46a2.83,2.83,0,0,0-.4.65,2.57,2.57,0,0,0-.1,1.06c0,.05-.05.15-.1.1a2.09,2.09,0,0,1-.5-.2.33.33,0,0,1-.2-.25A13.54,13.54,0,0,0,9.45,200a3.64,3.64,0,0,0-1.1-1.35.86.86,0,0,1-.35-.36c0-.1,0-.25,0-.35a3.81,3.81,0,0,0-1.56-3.56c-.2-.15-.4-.25-.5-.45s-.1-.51-.2-.71a2.77,2.77,0,0,0-.7-.6c-.11,0-.11-.15-.11-.25A10.23,10.23,0,0,1,12.11,185.11Z"/></g></svg>